<svg width="227" height="48" viewBox="0 0 227 48" fill="none" xmlns="http://www.w3.org/2000/svg">
<g clip-path="url(#clip0_3688_18172)">
<path d="M23.4292 32.4881C23.4292 28.4137 20.3524 25.8819 16.694 25.8819C12.7205 25.8819 9.78843 28.8721 9.78843 32.4881C9.78843 35.9601 12.4784 39.2146 16.6694 39.2146C20.5217 39.2146 23.4292 36.4419 23.4292 32.4881ZM33.1212 7.22123V47.0019H24.1566L23.696 44.0128C21.5395 46.5436 18.4135 48.0146 14.4892 48.0146C5.74215 48.0146 0 40.8297 0 32.5605C0 23.9535 5.98523 17.0819 14.4892 17.0819C18.1959 17.0819 21.2245 18.3601 23.4292 20.7224V7.22123H33.1212Z" fill="#2D3134"/>
<path d="M37.4946 18.0709H47.283V47.0017H37.4946V18.0709ZM36.9375 10.5245C36.9375 7.82427 39.2879 5.63041 42.3883 5.63041C45.5143 5.63041 47.8401 7.82427 47.8401 10.5245C47.8401 13.2247 45.5143 15.4186 42.3883 15.4186C39.2879 15.4186 36.9375 13.2247 36.9375 10.5245Z" fill="#2D3134"/>
<path d="M50.0859 42.614L54.3989 36.7797C55.6824 38.3947 59.1716 40.0823 62.5634 40.0823C63.8232 40.0823 65.2287 39.7933 65.2287 38.7326C65.2287 37.527 62.709 36.7797 59.7769 35.719C54.7621 34.1274 51.0791 31.1863 51.0791 26.726C51.0791 20.4333 56.9669 17.0338 63.0486 17.0338C67.4581 17.0338 71.964 18.9143 73.4906 21.687L68.5486 27.0874C67.1431 25.7613 64.9866 24.918 62.7573 24.918C61.3527 24.918 60.2858 25.207 60.2858 26.1227C60.2858 27.1354 61.7887 27.6418 66.2947 29.1373C71.9158 31.1863 75.0418 33.5486 75.0418 38.0578C75.0418 44.2291 69.3961 48.0625 61.7641 48.0625C56.337 48.0625 51.6608 45.7001 50.0859 42.614Z" fill="#2D3134"/>
<path d="M75.707 32.5364C75.707 23.2065 83.4846 17.1068 91.8921 17.1068C95.7928 17.1068 99.4266 18.4084 102.165 20.4818L97.7071 27.4014C96.4709 26.2437 94.4601 25.4484 92.4729 25.4484C88.4994 25.4484 85.4955 28.5345 85.4955 32.5364C85.4955 36.5628 88.4994 39.6009 92.4975 39.6009C94.5565 39.6009 96.4955 38.8047 97.6579 37.7204L102.553 44.3021C99.6934 46.5919 95.8892 47.9661 91.8921 47.9661C83.4846 47.9661 75.707 41.8672 75.707 32.5364Z" fill="#2D3134"/>
<path d="M134.633 42.614L138.946 36.7797C140.229 38.3947 143.718 40.0823 147.11 40.0823C148.37 40.0823 149.776 39.7933 149.776 38.7326C149.776 37.527 147.256 36.7797 144.324 35.719C139.309 34.1274 135.626 31.1863 135.626 26.726C135.626 20.4333 141.514 17.0338 147.595 17.0338C152.005 17.0338 156.511 18.9143 158.037 21.687L153.095 27.0874C151.69 25.7613 149.533 24.918 147.304 24.918C145.9 24.918 144.833 25.207 144.833 26.1227C144.833 27.1354 146.336 27.6418 150.842 29.1373C156.463 31.1863 159.589 33.5486 159.589 38.0578C159.589 44.2291 153.943 48.0625 146.311 48.0625C140.884 48.0625 136.208 45.7001 134.633 42.614Z" fill="#2D3134"/>
<path d="M160.258 42.614L164.571 36.7797C165.854 38.3947 169.343 40.0823 172.735 40.0823C173.995 40.0823 175.401 39.7933 175.401 38.7326C175.401 37.527 172.881 36.7797 169.949 35.719C164.934 34.1274 161.251 31.1863 161.251 26.726C161.251 20.4333 167.139 17.0338 173.22 17.0338C177.63 17.0338 182.136 18.9143 183.662 21.687L178.72 27.0874C177.315 25.7613 175.158 24.918 172.929 24.918C171.524 24.918 170.458 25.207 170.458 26.1227C170.458 27.1354 171.961 27.6418 176.467 29.1373C182.088 31.1863 185.214 33.5486 185.214 38.0578C185.214 44.2291 179.568 48.0625 171.936 48.0625C166.509 48.0625 161.833 45.7001 160.258 42.614Z" fill="#2D3134"/>
<path d="M117.89 43.7788C115.945 41.8324 114.712 39.5595 114.191 36.9571C114.06 36.2974 114.029 35.2433 114.002 34.0969C113.985 33.8804 113.977 33.6574 113.977 33.4268L113.954 18.0696H104.168L104.216 33.4513C104.216 41.4579 109.789 47.3628 118.169 47.3628C119.716 47.3628 121.175 47.1642 122.524 46.7896C121.202 46.2409 120.012 45.5501 118.943 44.7228C118.591 44.4451 118.242 44.1327 117.89 43.7788Z" fill="#2D3134"/>
<path d="M127.583 0.0243607L117.795 9.3665C117.776 9.38345 117.765 9.40789 117.766 9.43236C117.767 9.48225 117.808 9.52085 117.857 9.51991L122.448 9.50673C122.496 9.50673 122.536 9.54438 122.538 9.59238L122.579 33.4277C122.579 36.6823 120.86 38.7566 118.145 38.7566C115.759 38.7566 114.236 36.9947 114.009 34.1749L113.996 34.0093C114.029 35.1877 114.057 36.2804 114.19 36.9571C114.712 39.5594 115.944 41.8324 117.89 43.7797C118.241 44.1326 118.589 44.4451 118.942 44.7227C120.011 45.55 121.201 46.2408 122.523 46.7896C128.537 45.1284 132.412 39.9886 132.392 33.4522L132.341 9.59709C132.341 9.54815 132.381 9.50768 132.43 9.50768L137.438 9.51801C137.463 9.51896 137.487 9.50861 137.504 9.49073C137.538 9.45496 137.537 9.39849 137.501 9.36461L127.705 0.0243607C127.687 0.00836182 127.665 -8.01086e-05 127.644 -8.01086e-05C127.622 -8.01086e-05 127.6 0.00836182 127.583 0.0243607Z" fill="url(#paint0_linear_3688_18172)"/>
<path d="M195.416 17.979H205.164V46.7903H195.416V17.979ZM194.859 10.4646C194.859 7.77569 197.201 5.59121 200.289 5.59121C203.402 5.59121 205.717 7.77569 205.717 10.4646C205.717 13.1536 203.402 15.3381 200.289 15.3381C197.201 15.3381 194.859 13.1536 194.859 10.4646Z" fill="#DF6D25"/>
<path d="M211.522 37.0907V26.5505H207.469V18.7717H208.385C210.966 18.7717 212.486 17.3552 212.486 14.7623V11.9049H221.27V17.9792H227.181V26.5505H221.27V36.6107C221.27 38.5797 222.427 39.5877 224.165 39.5877C225.057 39.5877 226.24 39.2752 227.109 39.0107V46.286C225.492 46.91 222.767 47.2705 220.859 47.2705C213.741 47.2705 211.522 42.4686 211.522 37.0907Z" fill="#DF6D25"/>
</g>
<defs>
<linearGradient id="paint0_linear_3688_18172" x1="127.34" y1="-1.14706" x2="124.151" y2="45.5487" gradientUnits="userSpaceOnUse">
<stop stop-color="#DF6D25"/>
<stop offset="0.999793" stop-color="#E6C826"/>
<stop offset="1" stop-color="#E6C826"/>
</linearGradient>
<clipPath id="clip0_3688_18172">
<rect width="227" height="48" fill="white"/>
</clipPath>
</defs>
</svg>
